# File generated by ImageToStl.com - Free Image and 3D model conversion tools

mtllib alien1.mtl

o obj1
v -5 1 1
v -5 0 1
v -5 0 4
v -5 1 4
v -4 1 0
v -4 0 0
v -4 0 1
v -4 1 1
v -4 0 2
v -4 1 2
v -4 0 4
v -4 1 4
v -3 1 -3
v -3 0 -3
v -3 0 -2
v -3 1 -2
v -3 1 -1
v -3 0 -1
v -3 0 0
v -3 1 0
v -3 1 2
v -3 0 2
v -3 0 4
v -3 1 4
v -2 0 -3
v -2 1 -3
v -2 0 -2
v -2 1 -2
v -2 0 -1
v -2 1 -1
v -2 0 0
v -2 1 0
v -2 0 1
v -2 1 1
v -2 0 3
v -2 1 3
v -2 0 4
v -2 1 4
v -2 0 5
v -2 1 5
v -1 0 -2
v -1 1 -2
v -1 0 -1
v -1 1 -1
v -1 1 0
v -1 0 0
v -1 0 1
v -1 1 1
v 0 0 4
v 0 1 4
v 0 0 5
v 0 1 5
v 1 1 4
v 1 0 4
v 1 0 5
v 1 1 5
v 2 1 -2
v 2 0 -2
v 2 0 -1
v 2 1 -1
v 2 0 0
v 2 1 0
v 2 0 1
v 2 1 1
v 3 1 -3
v 3 0 -3
v 3 0 -2
v 3 1 -2
v 3 0 -1
v 3 1 -1
v 3 1 0
v 3 0 0
v 3 0 1
v 3 1 1
v 3 1 3
v 3 0 3
v 3 0 4
v 3 1 4
v 3 0 5
v 3 1 5
v 4 0 -3
v 4 1 -3
v 4 0 -2
v 4 1 -2
v 4 0 -1
v 4 1 -1
v 4 0 0
v 4 1 0
v 4 0 2
v 4 1 2
v 4 0 4
v 4 1 4
v 5 0 0
v 5 1 0
v 5 0 1
v 5 1 1
v 5 1 2
v 5 0 2
v 5 0 4
v 5 1 4
v 6 0 1
v 6 1 1
v 6 0 4
v 6 1 4
v -1 0 3
v 2 0 3
v -1 1 3
v 2 1 3
vn -1 0 0
vn 1 0 0
vn 0 -1 0
vn 0 1 0
vn 0 0 -1
vn 0 0 1
usemtl mat0
f 1//1 2//1 3//1
f 1//1 3//1 4//1
f 5//1 6//1 7//1
f 5//1 7//1 8//1
f 9//2 10//2 11//2
f 11//2 10//2 12//2
f 13//1 14//1 15//1
f 13//1 15//1 16//1
f 17//1 18//1 19//1
f 17//1 19//1 20//1
f 21//1 22//1 23//1
f 21//1 23//1 24//1
f 25//2 26//2 27//2
f 27//2 26//2 28//2
f 28//1 27//1 29//1
f 28//1 29//1 30//1
f 31//2 32//2 33//2
f 33//2 32//2 34//2
f 35//2 36//2 37//2
f 37//2 36//2 38//2
f 38//1 37//1 39//1
f 38//1 39//1 40//1
f 41//2 42//2 43//2
f 43//2 42//2 44//2
f 45//1 46//1 47//1
f 45//1 47//1 48//1
f 49//2 50//2 51//2
f 51//2 50//2 52//2
f 53//1 54//1 55//1
f 53//1 55//1 56//1
f 57//1 58//1 59//1
f 57//1 59//1 60//1
f 61//2 62//2 63//2
f 63//2 62//2 64//2
f 65//1 66//1 67//1
f 65//1 67//1 68//1
f 67//2 68//2 69//2
f 69//2 68//2 70//2
f 71//1 72//1 73//1
f 71//1 73//1 74//1
f 75//1 76//1 77//1
f 75//1 77//1 78//1
f 77//2 78//2 79//2
f 79//2 78//2 80//2
f 81//2 82//2 83//2
f 83//2 82//2 84//2
f 85//2 86//2 87//2
f 87//2 86//2 88//2
f 89//2 90//2 91//2
f 91//2 90//2 92//2
f 93//2 94//2 95//2
f 95//2 94//2 96//2
f 97//1 98//1 99//1
f 97//1 99//1 100//1
f 101//2 102//2 103//2
f 103//2 102//2 104//2
f 3//3 2//3 7//3
f 3//3 7//3 11//3
f 7//2 6//2 11//2
f 9//3 6//3 19//3
f 9//3 19//3 22//3
f 19//2 18//2 22//2
f 23//3 18//3 29//3
f 23//3 29//3 37//3
f 29//2 27//2 37//2
f 31//3 27//3 41//3
f 31//3 41//3 43//3
f 31//3 43//3 46//3
f 105//3 43//3 59//3
f 105//3 59//3 106//3
f 59//2 58//2 106//2
f 61//3 58//3 67//3
f 61//3 67//3 69//3
f 61//3 69//3 72//3
f 77//3 69//3 85//3
f 77//3 85//3 87//3
f 77//3 87//3 91//3
f 89//3 87//3 93//3
f 89//3 93//3 95//3
f 89//3 95//3 98//3
f 99//3 95//3 101//3
f 99//3 101//3 103//3
f 15//3 14//3 25//3
f 15//3 25//3 27//3
f 35//3 33//3 47//3
f 35//3 47//3 105//3
f 39//3 37//3 49//3
f 39//3 49//3 51//3
f 55//3 54//3 77//3
f 55//3 77//3 79//3
f 106//3 63//3 73//3
f 106//3 73//3 76//3
f 67//3 66//3 81//3
f 67//3 81//3 83//3
f 1//4 4//4 8//4
f 8//4 4//4 12//4
f 5//2 8//2 12//2
f 5//4 10//4 20//4
f 20//4 10//4 21//4
f 17//2 20//2 21//2
f 17//4 24//4 30//4
f 30//4 24//4 38//4
f 28//2 30//2 38//2
f 28//4 32//4 42//4
f 42//4 32//4 44//4
f 44//4 32//4 45//4
f 44//4 107//4 60//4
f 60//4 107//4 108//4
f 57//2 60//2 108//2
f 57//4 62//4 68//4
f 68//4 62//4 70//4
f 70//4 62//4 71//4
f 70//4 78//4 86//4
f 86//4 78//4 88//4
f 88//4 78//4 92//4
f 88//4 90//4 94//4
f 94//4 90//4 96//4
f 96//4 90//4 97//4
f 96//4 100//4 102//4
f 102//4 100//4 104//4
f 13//4 16//4 26//4
f 26//4 16//4 28//4
f 34//4 36//4 48//4
f 48//4 36//4 107//4
f 38//4 40//4 50//4
f 50//4 40//4 52//4
f 53//4 56//4 78//4
f 78//4 56//4 80//4
f 64//4 108//4 74//4
f 74//4 108//4 75//4
f 65//4 68//4 82//4
f 82//4 68//4 84//4
f 25//5 14//5 13//5
f 25//5 13//5 26//5
f 81//5 66//5 65//5
f 81//5 65//5 82//5
f 15//6 27//6 16//6
f 16//6 27//6 28//6
f 41//5 27//5 28//5
f 41//5 28//5 42//5
f 67//5 58//5 57//5
f 67//5 57//5 68//5
f 67//6 83//6 68//6
f 68//6 83//6 84//6
f 29//5 18//5 17//5
f 29//5 17//5 30//5
f 59//5 43//5 44//5
f 59//5 44//5 60//5
f 85//5 69//5 70//5
f 85//5 70//5 86//5
f 19//5 6//5 5//5
f 19//5 5//5 20//5
f 31//6 46//6 32//6
f 32//6 46//6 45//6
f 61//6 72//6 62//6
f 62//6 72//6 71//6
f 93//5 87//5 88//5
f 93//5 88//5 94//5
f 7//5 2//5 1//5
f 7//5 1//5 8//5
f 47//5 33//5 34//5
f 47//5 34//5 48//5
f 73//5 63//5 64//5
f 73//5 64//5 74//5
f 101//5 95//5 96//5
f 101//5 96//5 102//5
f 9//6 22//6 10//6
f 10//6 22//6 21//6
f 89//6 98//6 90//6
f 90//6 98//6 97//6
f 35//6 76//6 36//6
f 36//6 76//6 75//6
f 3//6 11//6 4//6
f 4//6 11//6 12//6
f 23//6 37//6 24//6
f 24//6 37//6 38//6
f 49//5 37//5 38//5
f 49//5 38//5 50//5
f 77//5 54//5 53//5
f 77//5 53//5 78//5
f 77//6 91//6 78//6
f 78//6 91//6 92//6
f 99//6 103//6 100//6
f 100//6 103//6 104//6
f 39//6 51//6 40//6
f 40//6 51//6 52//6
f 55//6 79//6 56//6
f 56//6 79//6 80//6
# Vertices: 108, normals: 6, texture coordinates: 0, faces: 188

