# File generated by ImageToStl.com - Free Image and 3D model conversion tools

mtllib alien2.mtl

o obj1
v -5 1 -2
v -5 0 -2
v -5 0 2
v -5 1 2
v -4 0 -2
v -4 1 -2
v -4 0 0
v -4 1 0
v -4 1 2
v -4 0 2
v -4 0 3
v -4 1 3
v -4 1 4
v -4 0 4
v -4 0 5
v -4 1 5
v -3 1 -3
v -3 0 -3
v -3 0 -2
v -3 1 -2
v -3 1 -1
v -3 0 -1
v -3 0 0
v -3 1 0
v -3 1 3
v -3 0 3
v -3 0 4
v -3 1 4
v -3 0 5
v -3 1 5
v -2 0 -3
v -2 1 -3
v -2 0 -2
v -2 1 -2
v -2 0 -1
v -2 1 -1
v -2 0 0
v -2 1 0
v -2 0 1
v -2 1 1
v -2 0 3
v -2 1 3
v -2 0 4
v -2 1 4
v -1 0 -2
v -1 1 -2
v -1 0 -1
v -1 1 -1
v -1 1 0
v -1 0 0
v -1 0 1
v -1 1 1
v 2 1 -2
v 2 0 -2
v 2 0 -1
v 2 1 -1
v 2 0 0
v 2 1 0
v 2 0 1
v 2 1 1
v 3 1 -3
v 3 0 -3
v 3 0 -2
v 3 1 -2
v 3 0 -1
v 3 1 -1
v 3 1 0
v 3 0 0
v 3 0 1
v 3 1 1
v 3 1 3
v 3 0 3
v 3 0 4
v 3 1 4
v 4 0 -3
v 4 1 -3
v 4 0 -2
v 4 1 -2
v 4 0 -1
v 4 1 -1
v 4 0 0
v 4 1 0
v 4 0 3
v 4 1 3
v 4 0 4
v 4 1 4
v 4 0 5
v 4 1 5
v 5 1 -2
v 5 0 -2
v 5 0 0
v 5 1 0
v 5 0 2
v 5 1 2
v 5 0 3
v 5 1 3
v 5 0 4
v 5 1 4
v 5 0 5
v 5 1 5
v 6 0 -2
v 6 1 -2
v 6 0 2
v 6 1 2
v -1 0 3
v 2 0 3
v -1 1 3
v 2 1 3
vn -1 0 0
vn 1 0 0
vn 0 -1 0
vn 0 1 0
vn 0 0 -1
vn 0 0 1
usemtl mat0
f 1//1 2//1 3//1
f 1//1 3//1 4//1
f 5//2 6//2 7//2
f 7//2 6//2 8//2
f 9//1 10//1 11//1
f 9//1 11//1 12//1
f 13//1 14//1 15//1
f 13//1 15//1 16//1
f 17//1 18//1 19//1
f 17//1 19//1 20//1
f 21//1 22//1 23//1
f 21//1 23//1 24//1
f 25//1 26//1 27//1
f 25//1 27//1 28//1
f 27//2 28//2 29//2
f 29//2 28//2 30//2
f 31//2 32//2 33//2
f 33//2 32//2 34//2
f 34//1 33//1 35//1
f 34//1 35//1 36//1
f 37//2 38//2 39//2
f 39//2 38//2 40//2
f 41//2 42//2 43//2
f 43//2 42//2 44//2
f 45//2 46//2 47//2
f 47//2 46//2 48//2
f 49//1 50//1 51//1
f 49//1 51//1 52//1
f 53//1 54//1 55//1
f 53//1 55//1 56//1
f 57//2 58//2 59//2
f 59//2 58//2 60//2
f 61//1 62//1 63//1
f 61//1 63//1 64//1
f 63//2 64//2 65//2
f 65//2 64//2 66//2
f 67//1 68//1 69//1
f 67//1 69//1 70//1
f 71//1 72//1 73//1
f 71//1 73//1 74//1
f 75//2 76//2 77//2
f 77//2 76//2 78//2
f 79//2 80//2 81//2
f 81//2 80//2 82//2
f 83//2 84//2 85//2
f 85//2 84//2 86//2
f 86//1 85//1 87//1
f 86//1 87//1 88//1
f 89//1 90//1 91//1
f 89//1 91//1 92//1
f 93//2 94//2 95//2
f 95//2 94//2 96//2
f 97//2 98//2 99//2
f 99//2 98//2 100//2
f 101//2 102//2 103//2
f 103//2 102//2 104//2
f 3//3 2//3 5//3
f 3//3 5//3 7//3
f 3//3 7//3 10//3
f 11//3 7//3 23//3
f 11//3 23//3 26//3
f 23//2 22//2 26//2
f 27//3 22//3 35//3
f 27//3 35//3 43//3
f 35//2 33//2 43//2
f 37//3 33//3 45//3
f 37//3 45//3 47//3
f 37//3 47//3 50//3
f 105//3 47//3 55//3
f 105//3 55//3 106//3
f 55//2 54//2 106//2
f 57//3 54//3 63//3
f 57//3 63//3 65//3
f 57//3 65//3 68//3
f 73//3 65//3 79//3
f 73//3 79//3 81//3
f 73//3 81//3 85//3
f 83//3 81//3 91//3
f 83//3 91//3 95//3
f 91//2 90//2 95//2
f 93//3 90//3 101//3
f 93//3 101//3 103//3
f 15//3 14//3 27//3
f 15//3 27//3 29//3
f 19//3 18//3 31//3
f 19//3 31//3 33//3
f 41//3 39//3 51//3
f 41//3 51//3 105//3
f 106//3 59//3 69//3
f 106//3 69//3 72//3
f 63//3 62//3 75//3
f 63//3 75//3 77//3
f 87//3 85//3 97//3
f 87//3 97//3 99//3
f 1//4 4//4 6//4
f 6//4 4//4 8//4
f 8//4 4//4 9//4
f 8//4 12//4 24//4
f 24//4 12//4 25//4
f 21//2 24//2 25//2
f 21//4 28//4 36//4
f 36//4 28//4 44//4
f 34//2 36//2 44//2
f 34//4 38//4 46//4
f 46//4 38//4 48//4
f 48//4 38//4 49//4
f 48//4 107//4 56//4
f 56//4 107//4 108//4
f 53//2 56//2 108//2
f 53//4 58//4 64//4
f 64//4 58//4 66//4
f 66//4 58//4 67//4
f 66//4 74//4 80//4
f 80//4 74//4 82//4
f 82//4 74//4 86//4
f 82//4 84//4 92//4
f 92//4 84//4 96//4
f 89//2 92//2 96//2
f 89//4 94//4 102//4
f 102//4 94//4 104//4
f 13//4 16//4 28//4
f 28//4 16//4 30//4
f 17//4 20//4 32//4
f 32//4 20//4 34//4
f 40//4 42//4 52//4
f 52//4 42//4 107//4
f 60//4 108//4 70//4
f 70//4 108//4 71//4
f 61//4 64//4 76//4
f 76//4 64//4 78//4
f 86//4 88//4 98//4
f 98//4 88//4 100//4
f 31//5 18//5 17//5
f 31//5 17//5 32//5
f 75//5 62//5 61//5
f 75//5 61//5 76//5
f 5//5 2//5 1//5
f 5//5 1//5 6//5
f 19//6 33//6 20//6
f 20//6 33//6 34//6
f 45//5 33//5 34//5
f 45//5 34//5 46//5
f 63//5 54//5 53//5
f 63//5 53//5 64//5
f 63//6 77//6 64//6
f 64//6 77//6 78//6
f 101//5 90//5 89//5
f 101//5 89//5 102//5
f 35//5 22//5 21//5
f 35//5 21//5 36//5
f 55//5 47//5 48//5
f 55//5 48//5 56//5
f 79//5 65//5 66//5
f 79//5 66//5 80//5
f 23//5 7//5 8//5
f 23//5 8//5 24//5
f 37//6 50//6 38//6
f 38//6 50//6 49//6
f 57//6 68//6 58//6
f 58//6 68//6 67//6
f 91//5 81//5 82//5
f 91//5 82//5 92//5
f 51//5 39//5 40//5
f 51//5 40//5 52//5
f 69//5 59//5 60//5
f 69//5 60//5 70//5
f 3//6 10//6 4//6
f 4//6 10//6 9//6
f 93//6 103//6 94//6
f 94//6 103//6 104//6
f 11//6 26//6 12//6
f 12//6 26//6 25//6
f 41//6 72//6 42//6
f 42//6 72//6 71//6
f 83//6 95//6 84//6
f 84//6 95//6 96//6
f 27//5 14//5 13//5
f 27//5 13//5 28//5
f 27//6 43//6 28//6
f 28//6 43//6 44//6
f 73//6 85//6 74//6
f 74//6 85//6 86//6
f 97//5 85//5 86//5
f 97//5 86//5 98//5
f 15//6 29//6 16//6
f 16//6 29//6 30//6
f 87//6 99//6 88//6
f 88//6 99//6 100//6
# Vertices: 108, normals: 6, texture coordinates: 0, faces: 188

