# File generated by ImageToStl.com - Free Image and 3D model conversion tools

mtllib spaceship.mtl

o obj1
v -6 1 3
v -6 0 3
v -6 0 7
v -6 1 7
v -5 1 2
v -5 0 2
v -5 0 3
v -5 1 3
v -1 1 0
v -1 0 0
v -1 0 2
v -1 1 2
v 0 1 -1
v 0 0 -1
v 0 0 0
v 0 1 0
v 1 0 -1
v 1 1 -1
v 1 0 0
v 1 1 0
v 2 0 0
v 2 1 0
v 2 0 2
v 2 1 2
v 6 0 2
v 6 1 2
v 6 0 3
v 6 1 3
v 7 0 3
v 7 1 3
v 7 0 7
v 7 1 7
vn -1 0 0
vn 1 0 0
vn 0 -1 0
vn 0 1 0
vn 0 0 -1
vn 0 0 1
usemtl mat0
f 1//1 2//1 3//1
f 1//1 3//1 4//1
f 5//1 6//1 7//1
f 5//1 7//1 8//1
f 9//1 10//1 11//1
f 9//1 11//1 12//1
f 13//1 14//1 15//1
f 13//1 15//1 16//1
f 17//2 18//2 19//2
f 19//2 18//2 20//2
f 21//2 22//2 23//2
f 23//2 22//2 24//2
f 25//2 26//2 27//2
f 27//2 26//2 28//2
f 29//2 30//2 31//2
f 31//2 30//2 32//2
f 3//3 2//3 7//3
f 7//3 6//3 11//3
f 3//3 7//3 11//3
f 11//3 10//3 15//3
f 15//3 14//3 17//3
f 11//3 15//3 17//3
f 11//3 17//3 19//3
f 11//3 19//3 21//3
f 3//3 11//3 21//3
f 3//3 21//3 23//3
f 3//3 23//3 25//3
f 3//3 25//3 27//3
f 3//3 27//3 29//3
f 3//3 29//3 31//3
f 1//4 4//4 8//4
f 5//4 8//4 12//4
f 8//4 4//4 12//4
f 9//4 12//4 16//4
f 13//4 16//4 18//4
f 16//4 12//4 18//4
f 18//4 12//4 20//4
f 20//4 12//4 22//4
f 12//4 4//4 22//4
f 22//4 4//4 24//4
f 24//4 4//4 26//4
f 26//4 4//4 28//4
f 28//4 4//4 30//4
f 30//4 4//4 32//4
f 17//5 14//5 13//5
f 17//5 13//5 18//5
f 15//5 10//5 9//5
f 15//5 9//5 16//5
f 21//5 19//5 20//5
f 21//5 20//5 22//5
f 11//5 6//5 5//5
f 11//5 5//5 12//5
f 25//5 23//5 24//5
f 25//5 24//5 26//5
f 7//5 2//5 1//5
f 7//5 1//5 8//5
f 29//5 27//5 28//5
f 29//5 28//5 30//5
f 3//6 31//6 4//6
f 4//6 31//6 32//6
# Vertices: 32, normals: 6, texture coordinates: 0, faces: 60

